<svg xmlns="http://www.w3.org/2000/svg" xmlns:xlink="http://www.w3.org/1999/xlink" width="512" zoomAndPan="magnify" viewBox="0 0 384 383.999986" height="512" preserveAspectRatio="xMidYMid meet" version="1.0"><defs><clipPath id="0554830731"><path d="M 14 86.1875 L 370.558594 86.1875 L 370.558594 297.8125 L 14 297.8125 Z M 14 86.1875 " clip-rule="nonzero"/></clipPath><clipPath id="f78a079746"><path d="M 172.160156 86.1875 C 218.453125 86.1875 254.164062 115.945312 268.714844 152.320312 C 276.648438 149.675781 285.246094 148.351562 294.507812 148.351562 C 336.167969 148.351562 370.558594 182.742188 370.558594 224.40625 C 370.558594 266.730469 337.492188 297.8125 297.8125 297.8125 L 92.800781 297.8125 C 39.894531 297.8125 14.101562 272.019531 14.101562 235.648438 C 14.101562 201.257812 40.554688 172.820312 73.621094 170.175781 C 82.878906 124.542969 119.253906 86.1875 172.160156 86.1875 Z M 172.160156 86.1875 " clip-rule="nonzero"/></clipPath><clipPath id="e29b0c1fd7"><path d="M 0 0.1875 L 356.558594 0.1875 L 356.558594 211.8125 L 0 211.8125 Z M 0 0.1875 " clip-rule="nonzero"/></clipPath><clipPath id="194644ed9c"><path d="M 158.160156 0.1875 C 204.453125 0.1875 240.164062 29.945312 254.714844 66.320312 C 262.648438 63.675781 271.246094 62.351562 280.507812 62.351562 C 322.167969 62.351562 356.558594 96.742188 356.558594 138.40625 C 356.558594 180.730469 323.492188 211.8125 283.8125 211.8125 L 78.800781 211.8125 C 25.894531 211.8125 0.101562 186.019531 0.101562 149.648438 C 0.101562 115.257812 26.554688 86.820312 59.621094 84.175781 C 68.878906 38.542969 105.253906 0.1875 158.160156 0.1875 Z M 158.160156 0.1875 " clip-rule="nonzero"/></clipPath><clipPath id="eb33faccf6"><rect x="0" width="357" y="0" height="212"/></clipPath></defs><g clip-path="url(#0554830731)"><g clip-path="url(#f78a079746)"><g transform="matrix(1, 0, 0, 1, 14, 86)"><g clip-path="url(#eb33faccf6)"><g clip-path="url(#e29b0c1fd7)"><g clip-path="url(#194644ed9c)"><path fill="#ff5c39" d="M -0.558594 0.1875 L 356.558594 0.1875 L 356.558594 211.8125 L -0.558594 211.8125 Z M -0.558594 0.1875 " fill-opacity="1" fill-rule="nonzero"/></g></g></g></g></g></g></svg>