<svg xmlns="http://www.w3.org/2000/svg" xmlns:xlink="http://www.w3.org/1999/xlink" width="181" zoomAndPan="magnify" viewBox="0 0 135.75 47.25" height="63" preserveAspectRatio="xMidYMid meet" version="1.0"><defs><g/><clipPath id="68bdd483d3"><path d="M 91.863281 8.96875 L 134.003906 8.96875 L 134.003906 33.941406 L 91.863281 33.941406 Z M 91.863281 8.96875 " clip-rule="nonzero"/></clipPath><clipPath id="c5c74864b7"><path d="M 110.59375 8.96875 C 116.054688 8.96875 120.269531 12.480469 121.984375 16.773438 C 122.921875 16.460938 123.9375 16.304688 125.027344 16.304688 C 129.945312 16.304688 134.003906 20.363281 134.003906 25.277344 C 134.003906 30.273438 130.101562 33.941406 125.417969 33.941406 L 101.226562 33.941406 C 94.984375 33.941406 91.941406 30.898438 91.941406 26.605469 C 91.941406 22.546875 95.0625 19.191406 98.964844 18.878906 C 100.058594 13.496094 104.347656 8.96875 110.59375 8.96875 Z M 110.59375 8.96875 " clip-rule="nonzero"/></clipPath><clipPath id="49b306b5f5"><path d="M 0.894531 0.96875 L 43.003906 0.96875 L 43.003906 25.941406 L 0.894531 25.941406 Z M 0.894531 0.96875 " clip-rule="nonzero"/></clipPath><clipPath id="9ffa5940e7"><path d="M 19.59375 0.96875 C 25.054688 0.96875 29.269531 4.480469 30.984375 8.773438 C 31.921875 8.460938 32.9375 8.304688 34.027344 8.304688 C 38.945312 8.304688 43.003906 12.363281 43.003906 17.277344 C 43.003906 22.273438 39.101562 25.941406 34.417969 25.941406 L 10.226562 25.941406 C 3.984375 25.941406 0.941406 22.898438 0.941406 18.605469 C 0.941406 14.546875 4.0625 11.191406 7.964844 10.878906 C 9.058594 5.496094 13.347656 0.96875 19.59375 0.96875 Z M 19.59375 0.96875 " clip-rule="nonzero"/></clipPath><clipPath id="10d0937d69"><rect x="0" width="44" y="0" height="26"/></clipPath></defs><g fill="#ffffff" fill-opacity="1"><g transform="translate(7.839253, 32.528619)"><g><path d="M 10.109375 -10.5 C 13.015625 -7.707031 15.078125 -5.609375 16.296875 -4.203125 C 16.929688 -3.492188 17.25 -2.894531 17.25 -2.40625 C 17.25 -1.925781 16.863281 -1.359375 16.09375 -0.703125 C 15.332031 -0.046875 14.707031 0.28125 14.21875 0.28125 C 13.738281 0.28125 13.15625 -0.113281 12.46875 -0.90625 L 6.1875 -8.078125 L 6.1875 -2.515625 C 6.1875 -2.054688 6.171875 -1.722656 6.140625 -1.515625 C 6.117188 -1.304688 6.03125 -1.054688 5.875 -0.765625 C 5.613281 -0.253906 4.875 0 3.65625 0 C 2.320312 0 1.539062 -0.359375 1.3125 -1.078125 C 1.195312 -1.390625 1.140625 -1.878906 1.140625 -2.546875 L 1.140625 -18.40625 C 1.140625 -18.84375 1.15625 -19.171875 1.1875 -19.390625 C 1.21875 -19.609375 1.304688 -19.863281 1.453125 -20.15625 C 1.722656 -20.664062 2.46875 -20.921875 3.6875 -20.921875 C 5.019531 -20.921875 5.804688 -20.570312 6.046875 -19.875 C 6.140625 -19.550781 6.1875 -19.054688 6.1875 -18.390625 L 6.1875 -12.9375 C 8.78125 -15.84375 10.875 -18.226562 12.46875 -20.09375 C 13.132812 -20.875 13.710938 -21.265625 14.203125 -21.265625 C 14.703125 -21.265625 15.332031 -20.9375 16.09375 -20.28125 C 16.863281 -19.625 17.25 -19.050781 17.25 -18.5625 C 17.25 -18.082031 16.960938 -17.507812 16.390625 -16.84375 C 15.285156 -15.570312 13.570312 -13.820312 11.25 -11.59375 Z M 10.109375 -10.5 "/></g></g></g><g fill="#ffffff" fill-opacity="1"><g transform="translate(25.219525, 32.528619)"><g><path d="M 7.828125 -0.0625 C 5.898438 -0.0625 4.300781 -0.785156 3.03125 -2.234375 C 1.769531 -3.691406 1.140625 -5.46875 1.140625 -7.5625 L 1.140625 -12.5625 C 1.140625 -13.019531 1.15625 -13.351562 1.1875 -13.5625 C 1.21875 -13.769531 1.296875 -14.015625 1.421875 -14.296875 C 1.691406 -14.816406 2.4375 -15.078125 3.65625 -15.078125 C 4.988281 -15.078125 5.769531 -14.710938 6 -13.984375 C 6.113281 -13.679688 6.171875 -13.195312 6.171875 -12.53125 L 6.171875 -7.53125 C 6.171875 -6.75 6.390625 -6.140625 6.828125 -5.703125 C 7.273438 -5.265625 7.875 -5.046875 8.625 -5.046875 C 9.382812 -5.046875 9.992188 -5.273438 10.453125 -5.734375 C 10.921875 -6.191406 11.15625 -6.789062 11.15625 -7.53125 L 11.15625 -12.59375 C 11.15625 -13.03125 11.171875 -13.359375 11.203125 -13.578125 C 11.234375 -13.796875 11.320312 -14.046875 11.46875 -14.328125 C 11.71875 -14.828125 12.453125 -15.078125 13.671875 -15.078125 C 14.867188 -15.078125 15.601562 -14.816406 15.875 -14.296875 C 16.007812 -14.015625 16.085938 -13.765625 16.109375 -13.546875 C 16.140625 -13.328125 16.15625 -13 16.15625 -12.5625 L 16.15625 -2.453125 C 16.15625 -2.035156 16.140625 -1.71875 16.109375 -1.5 C 16.085938 -1.28125 16 -1.035156 15.84375 -0.765625 C 15.5625 -0.273438 14.828125 -0.03125 13.640625 -0.03125 C 12.484375 -0.03125 11.769531 -0.257812 11.5 -0.71875 C 11.3125 -1.039062 11.21875 -1.429688 11.21875 -1.890625 C 11.144531 -1.753906 10.972656 -1.5625 10.703125 -1.3125 C 10.441406 -1.0625 10.1875 -0.851562 9.9375 -0.6875 C 9.289062 -0.269531 8.585938 -0.0625 7.828125 -0.0625 Z M 7.828125 -0.0625 "/></g></g></g><g fill="#ffffff" fill-opacity="1"><g transform="translate(42.51426, 32.528619)"><g><path d="M 6.046875 -13.046875 C 6.941406 -14.398438 8.019531 -15.078125 9.28125 -15.078125 C 11.21875 -15.078125 12.660156 -14.25 13.609375 -12.59375 C 13.828125 -12.875 14.082031 -13.171875 14.375 -13.484375 C 14.664062 -13.796875 15.132812 -14.140625 15.78125 -14.515625 C 16.425781 -14.890625 17.09375 -15.078125 17.78125 -15.078125 C 19.300781 -15.078125 20.578125 -14.488281 21.609375 -13.3125 C 22.640625 -12.144531 23.15625 -10.207031 23.15625 -7.5 L 23.15625 -2.515625 C 23.15625 -2.078125 23.140625 -1.75 23.109375 -1.53125 C 23.078125 -1.3125 22.988281 -1.054688 22.84375 -0.765625 C 22.59375 -0.253906 21.859375 0 20.640625 0 C 19.441406 0 18.707031 -0.265625 18.4375 -0.796875 C 18.300781 -1.085938 18.21875 -1.34375 18.1875 -1.5625 C 18.164062 -1.78125 18.15625 -2.109375 18.15625 -2.546875 L 18.15625 -7.53125 C 18.15625 -9.1875 17.566406 -10.015625 16.390625 -10.015625 C 15.722656 -10.015625 15.269531 -9.796875 15.03125 -9.359375 C 14.789062 -8.921875 14.671875 -8.300781 14.671875 -7.5 L 14.671875 -2.515625 C 14.671875 -2.054688 14.65625 -1.722656 14.625 -1.515625 C 14.601562 -1.304688 14.515625 -1.054688 14.359375 -0.765625 C 14.085938 -0.253906 13.34375 0 12.125 0 C 10.925781 0 10.195312 -0.265625 9.9375 -0.796875 C 9.800781 -1.085938 9.71875 -1.34375 9.6875 -1.5625 C 9.664062 -1.78125 9.65625 -2.109375 9.65625 -2.546875 L 9.65625 -7.53125 C 9.65625 -9.1875 9.0625 -10.015625 7.875 -10.015625 C 6.738281 -10.015625 6.171875 -9.1875 6.171875 -7.53125 L 6.171875 -2.484375 C 6.171875 -2.046875 6.15625 -1.71875 6.125 -1.5 C 6.09375 -1.28125 6.003906 -1.03125 5.859375 -0.75 C 5.566406 -0.25 4.820312 0 3.625 0 C 2.425781 0 1.691406 -0.253906 1.421875 -0.765625 C 1.296875 -1.054688 1.21875 -1.304688 1.1875 -1.515625 C 1.15625 -1.722656 1.140625 -2.054688 1.140625 -2.515625 L 1.140625 -12.5625 C 1.140625 -13 1.15625 -13.328125 1.1875 -13.546875 C 1.21875 -13.765625 1.304688 -14.003906 1.453125 -14.265625 C 1.742188 -14.785156 2.421875 -15.046875 3.484375 -15.046875 C 4.546875 -15.046875 5.238281 -14.875 5.5625 -14.53125 C 5.882812 -14.1875 6.046875 -13.691406 6.046875 -13.046875 Z M 6.046875 -13.046875 "/></g></g></g><g fill="#ffffff" fill-opacity="1"><g transform="translate(66.801094, 32.528619)"><g><path d="M 0.71875 -7.5 C 0.71875 -9.789062 1.515625 -11.675781 3.109375 -13.15625 C 4.710938 -14.644531 6.539062 -15.390625 8.59375 -15.390625 C 10.644531 -15.390625 12.460938 -14.648438 14.046875 -13.171875 C 15.628906 -11.703125 16.421875 -9.820312 16.421875 -7.53125 C 16.421875 -5.957031 16.007812 -4.554688 15.1875 -3.328125 C 14.363281 -2.097656 13.367188 -1.191406 12.203125 -0.609375 C 11.035156 -0.0351562 9.820312 0.25 8.5625 0.25 C 7.3125 0.25 6.09375 -0.0546875 4.90625 -0.671875 C 3.726562 -1.285156 2.734375 -2.195312 1.921875 -3.40625 C 1.117188 -4.613281 0.71875 -5.976562 0.71875 -7.5 Z M 6.671875 -5.46875 C 7.285156 -5 7.90625 -4.765625 8.53125 -4.765625 C 9.164062 -4.765625 9.796875 -5 10.421875 -5.46875 C 11.046875 -5.945312 11.359375 -6.65625 11.359375 -7.59375 C 11.359375 -8.53125 11.0625 -9.222656 10.46875 -9.671875 C 9.882812 -10.128906 9.25 -10.359375 8.5625 -10.359375 C 7.875 -10.359375 7.234375 -10.117188 6.640625 -9.640625 C 6.054688 -9.171875 5.765625 -8.472656 5.765625 -7.546875 C 5.765625 -6.628906 6.066406 -5.9375 6.671875 -5.46875 Z M 6.671875 -5.46875 "/></g></g></g><g clip-path="url(#68bdd483d3)"><g clip-path="url(#c5c74864b7)"><g transform="matrix(1, 0, 0, 1, 91, 8)"><g clip-path="url(#10d0937d69)"><g clip-path="url(#49b306b5f5)"><g clip-path="url(#9ffa5940e7)"><path fill="#ff5c39" d="M 0.863281 0.96875 L 43.003906 0.96875 L 43.003906 25.941406 L 0.863281 25.941406 Z M 0.863281 0.96875 " fill-opacity="1" fill-rule="nonzero"/></g></g></g></g></g></g></svg>